<svg id="Layer_1" data-name="Layer 1" xmlns="http://www.w3.org/2000/svg" viewBox="0 0 277 617"><defs><style>.cls-1{fill:none;stroke:#ddd;}.cls-1,.cls-17,.cls-4{stroke-miterlimit:10;stroke-width:0.5px;}.cls-2,.cls-28,.cls-29,.cls-30,.cls-31{font-size:10px;font-family:FreightSansProSemibold-Regular, FreightSans Pro;font-weight:700;}.cls-2,.cls-28,.cls-29,.cls-30{fill:#5bc2e7;}.cls-2,.cls-31{letter-spacing:0.04em;}.cls-3{letter-spacing:0.03em;}.cls-4{fill:#2774ae;stroke:#2774ae;}.cls-15,.cls-20,.cls-21,.cls-22,.cls-5,.cls-8,.cls-9{font-size:8px;fill:#939598;font-family:FreightSansProBook-Regular, FreightSans Pro;}.cls-16,.cls-5{letter-spacing:0.04em;}.cls-6{letter-spacing:0.03em;}.cls-29,.cls-7,.cls-9{letter-spacing:0.04em;}.cls-26,.cls-8{letter-spacing:0.03em;}.cls-10{letter-spacing:-0.01em;}.cls-11{letter-spacing:0.04em;}.cls-12,.cls-21{letter-spacing:0.04em;}.cls-13{letter-spacing:0.06em;}.cls-14{letter-spacing:0.05em;}.cls-15,.cls-18{letter-spacing:0.03em;}.cls-17{fill:#fff;stroke:#5bc2e7;}.cls-19{letter-spacing:0.05em;}.cls-20{letter-spacing:-0.06em;}.cls-22{letter-spacing:0.03em;}.cls-23{letter-spacing:0.08em;}.cls-24{letter-spacing:0.03em;}.cls-25{letter-spacing:0.05em;}.cls-27{letter-spacing:0.03em;}.cls-28{letter-spacing:0.04em;}.cls-30{letter-spacing:-0.05em;}.cls-31{fill:#7a9a01;}.cls-32{letter-spacing:0.03em;}</style></defs><title>ProgreeBar3</title><line class="cls-1" x1="77.45" y1="34.79" x2="77.45" y2="130.94"/><text class="cls-2" transform="translate(26.33 21.56)">Chu<tspan class="cls-3" x="18.05" y="0">r</tspan><tspan x="22.3" y="0">ch Phase</tspan></text><circle class="cls-4" cx="77.45" cy="34.79" r="5"/><circle class="cls-4" cx="77.45" cy="54.02" r="5"/><circle class="cls-4" cx="77.45" cy="73.25" r="5"/><circle class="cls-4" cx="77.45" cy="92.48" r="5"/><circle class="cls-4" cx="77.45" cy="111.71" r="5"/><circle class="cls-4" cx="77.45" cy="130.94" r="5"/><text class="cls-5" transform="translate(88.27 36.74)">P<tspan class="cls-6" x="4.47" y="0">r</tspan><tspan class="cls-7" x="7.56" y="0">ofile Information</tspan></text><text class="cls-8" transform="translate(88.27 56.79)">C<tspan class="cls-7" x="4.89" y="0">onsultant Call</tspan></text><text class="cls-9" transform="translate(88.27 75.29)">Spiritual Maturity Questionnai<tspan class="cls-6" x="104.49" y="0">r</tspan><tspan x="107.57" y="0">e (Q1)</tspan></text><text class="cls-5" transform="translate(88.27 94.79)">Lifestyle and <tspan class="cls-10" x="45.96" y="0">W</tspan><tspan class="cls-7" x="53.08" y="0">ellne</tspan><tspan class="cls-11" x="69.54" y="0">s</tspan><tspan class="cls-7" x="72.99" y="0">s Questionnai</tspan><tspan class="cls-6" x="120.45" y="0">r</tspan><tspan class="cls-7" x="123.53" y="0">e (Q2)</tspan></text><text class="cls-9" transform="translate(88.27 114.29)">Chu<tspan class="cls-6" x="13.72" y="0">r</tspan><tspan x="16.81" y="0">ch In</tspan><tspan class="cls-12" x="33.74" y="0">t</tspan><tspan x="36.66" y="0">e</tspan><tspan class="cls-13" x="40.74" y="0">r</tspan><tspan x="44.02" y="0">vi</tspan><tspan class="cls-14" x="49.73" y="0">e</tspan><tspan x="53.89" y="0">w</tspan></text><text class="cls-15" transform="translate(88.27 133.94)">P<tspan class="cls-7" x="4.43" y="0">as</tspan><tspan class="cls-12" x="11.68" y="0">t</tspan><tspan class="cls-7" x="14.59" y="0">or S</tspan><tspan x="28.71" y="0">c</tspan><tspan class="cls-7" x="32.6" y="0">o</tspan><tspan class="cls-6" x="37.17" y="0">r</tspan><tspan class="cls-7" x="40.26" y="0">eca</tspan><tspan class="cls-6" x="52.1" y="0">r</tspan><tspan class="cls-16" x="55.18" y="0">d</tspan></text><line class="cls-1" x1="77.45" y1="174.86" x2="77.45" y2="444.07"/><circle class="cls-4" cx="77.45" cy="174.86" r="5"/><circle class="cls-4" cx="77.45" cy="194.09" r="5"/><circle class="cls-4" cx="77.45" cy="213.32" r="5"/><circle class="cls-4" cx="77.45" cy="232.55" r="5"/><circle class="cls-4" cx="77.45" cy="251.78" r="5"/><circle class="cls-4" cx="77.45" cy="271.01" r="5"/><circle class="cls-4" cx="77.45" cy="309.46" r="5"/><circle class="cls-4" cx="77.45" cy="347.92" r="5"/><circle class="cls-4" cx="77.45" cy="386.38" r="5"/><circle class="cls-17" cx="77.45" cy="424.84" r="5"/><circle class="cls-4" cx="77.45" cy="290.23" r="5"/><circle class="cls-4" cx="77.45" cy="328.69" r="5"/><circle class="cls-4" cx="77.45" cy="367.15" r="5"/><circle class="cls-17" cx="77.45" cy="405.61" r="5"/><circle class="cls-17" cx="77.45" cy="444.07" r="5"/><text class="cls-9" transform="translate(89.24 176.86)">Application</text><text class="cls-9" transform="translate(89.24 196.16)">Additional <tspan class="cls-18" x="37.59" y="0">F</tspan><tspan x="41.7" y="0">amily Information</tspan></text><text class="cls-5" transform="translate(89.24 216.21)">Witne<tspan class="cls-19" x="20.86" y="0">s</tspan><tspan class="cls-7" x="24.32" y="0">sing Journal </tspan></text><text class="cls-20" transform="translate(89.24 234.71)">T<tspan class="cls-12" x="3.96" y="0">r</tspan><tspan class="cls-7" x="7.09" y="0">anscript</tspan></text><text class="cls-21" transform="translate(89.24 254.21)">A<tspan class="cls-7" x="4.88" y="0">u</tspan><tspan x="9.23" y="0">t</tspan><tspan class="cls-16" x="12.14" y="0">obiog</tspan><tspan x="31.74" y="0">r</tspan><tspan class="cls-7" x="34.87" y="0">aphy</tspan></text><text class="cls-22" transform="translate(89.24 273.71)">R<tspan class="cls-7" x="4.47" y="0">efe</tspan><tspan class="cls-6" x="15.34" y="0">r</tspan><tspan class="cls-7" x="18.42" y="0">en</tspan><tspan class="cls-12" x="26.86" y="0">c</tspan><tspan class="cls-7" x="30.75" y="0">es</tspan></text><text class="cls-9" transform="translate(89.24 292.36)">Christian Beliefs Questionnai<tspan class="cls-6" x="100.22" y="0">r</tspan><tspan x="103.31" y="0">e</tspan></text><text class="cls-5" transform="translate(89.24 311.86)">Bac<tspan class="cls-6" x="12.48" y="0">k</tspan><tspan class="cls-7" x="16.19" y="0">g</tspan><tspan class="cls-6" x="20.26" y="0">r</tspan><tspan x="23.34" y="0">ound</tspan><tspan class="cls-23" x="41.06" y="0">/</tspan><tspan class="cls-7" x="43.39" y="0">C</tspan><tspan class="cls-6" x="48.4" y="0">r</tspan><tspan class="cls-7" x="51.49" y="0">edit</tspan></text><text class="cls-9" transform="translate(89.24 331.16)">Financials</text><text class="cls-9" transform="translate(89.24 351.21)">Christian Beliefs Checklist </text><text class="cls-5" transform="translate(89.24 369.71)">B<tspan class="cls-6" x="4.72" y="0">F</tspan><tspan x="8.79" y="0">&amp;M </tspan><tspan class="cls-24" x="22.66" y="0">C</tspan><tspan x="27.54" y="0">ourse</tspan></text><text class="cls-9" transform="translate(89.24 389.21)">Medical Clea<tspan class="cls-12" x="43.67" y="0">r</tspan><tspan x="46.8" y="0">an</tspan><tspan class="cls-18" x="54.99" y="0">c</tspan><tspan x="58.88" y="0">e</tspan></text><text class="cls-9" transform="translate(89.24 408.71)">Field Questionnai<tspan class="cls-6" x="60.66" y="0">r</tspan><tspan x="63.75" y="0">e</tspan></text><text class="cls-9" transform="translate(89.24 427.36)">Safe and Secu<tspan class="cls-6" x="48.37" y="0">r</tspan><tspan x="51.46" y="0">e</tspan></text><text class="cls-5" transform="translate(89.24 446.07)">In<tspan class="cls-12" x="6.5" y="0">t</tspan><tspan class="cls-7" x="9.42" y="0">e</tspan><tspan class="cls-13" x="13.5" y="0">r</tspan><tspan class="cls-7" x="16.78" y="0">vi</tspan><tspan class="cls-25" x="22.49" y="0">e</tspan><tspan class="cls-7" x="26.65" y="0">w </tspan><tspan class="cls-26" x="34.41" y="0">C</tspan><tspan class="cls-7" x="39.29" y="0">onfe</tspan><tspan class="cls-6" x="55.01" y="0">r</tspan><tspan class="cls-7" x="58.09" y="0">en</tspan><tspan class="cls-18" x="66.54" y="0">c</tspan><tspan class="cls-7" x="70.42" y="0">e</tspan></text><text class="cls-2" transform="translate(26.33 160.35)">IM<tspan class="cls-27" x="11.6" y="0">B</tspan><tspan x="17.83" y="0" xml:space="preserve"> Staff Phase</tspan></text><line class="cls-1" x1="77.45" y1="486.8" x2="77.45" y2="528.63"/><text class="cls-28" transform="translate(26.33 473.65)">F<tspan class="cls-7" x="5.55" y="0">ield Phase</tspan></text><circle class="cls-17" cx="77.45" cy="489.22" r="5"/><circle class="cls-17" cx="77.45" cy="508.44" r="5"/><circle class="cls-17" cx="77.45" cy="527.67" r="5"/><text class="cls-9" transform="translate(88.26 491.17)">Field Job Application</text><text class="cls-9" transform="translate(88.26 511.22)">Field In<tspan class="cls-12" x="25.27" y="0">t</tspan><tspan x="28.18" y="0">e</tspan><tspan class="cls-13" x="32.26" y="0">r</tspan><tspan x="35.55" y="0">vi</tspan><tspan class="cls-25" x="41.25" y="0">e</tspan><tspan x="45.42" y="0">w</tspan></text><text class="cls-20" transform="translate(88.26 529.72)">T<tspan class="cls-7" x="3.96" y="0">eam Ma</tspan><tspan class="cls-12" x="30.78" y="0">t</tspan><tspan class="cls-7" x="33.69" y="0">ch</tspan></text><text class="cls-29" transform="translate(26.33 556.65)">Appointment</text><text class="cls-30" transform="translate(26.33 576.48)">T<tspan class="cls-3" x="5.33" y="0">r</tspan><tspan class="cls-7" x="9.58" y="0">aining</tspan></text><text class="cls-31" transform="translate(26.33 596.31)">Depl<tspan class="cls-32" x="21.13" y="0">o</tspan><tspan class="cls-7" x="26.86" y="0">yment</tspan></text></svg>