<svg id="Layer_1" data-name="Layer 1" xmlns="http://www.w3.org/2000/svg" viewBox="0 0 277 530"><defs><style>.cls-1,.cls-2{fill:none;}.cls-1,.cls-4,.cls-5{stroke:#ddd;}.cls-1,.cls-2,.cls-3,.cls-4,.cls-5,.cls-8{stroke-miterlimit:10;}.cls-1,.cls-3,.cls-4,.cls-5,.cls-8{stroke-width:0.5px;}.cls-2{stroke:#000;stroke-width:0.75px;}.cls-3,.cls-6{fill:#5bc2e7;}.cls-3{stroke:#5bc2e7;}.cls-4{fill:#fff;}.cls-10,.cls-5{fill:#ddd;}.cls-7{fill:#939598;}.cls-8,.cls-9{fill:#7a9a01;}.cls-8{stroke:#7a9a01;}</style></defs><title>TeamAssociate</title><path class="cls-1" d="M145.54,45V68.21c0,53.83-40.62,10.26-39.92,63.29.54,41-.12,61.25-.12,115.54,0,36.29-28.25-5-26.21,62.17V481.29"/><path class="cls-1" d="M105.49,247c0,36.29,28.25-5,26.21,62.17V418.46"/><path class="cls-1" d="M145.54,45V68.21c0,53.83-40.62,10.26-39.92,63.29.54,41-.12,61.25-.12,115.54"/><path class="cls-1" d="M105.49,247c0,36.29,28.25-5,26.21,62.17V418.46"/><path class="cls-2" d="M145.54,45V68.21"/><path class="cls-2" d="M145.54,68.21c0,53.83,40.63,10.26,39.93,63.29-.55,41,.12,39.25.12,93.54"/><circle class="cls-3" cx="145.54" cy="45" r="5"/><circle class="cls-4" cx="105.56" cy="129.04" r="5"/><circle class="cls-3" cx="185.33" cy="129.04" r="5"/><circle class="cls-4" cx="79.35" cy="365.79" r="5"/><circle class="cls-4" cx="105.56" cy="242.04" r="5"/><circle class="cls-4" cx="131.78" cy="304.33" r="5"/><circle class="cls-5" cx="131.78" cy="418.46" r="5"/><circle class="cls-3" cx="185.33" cy="189.13" r="5"/><path class="cls-6" d="M55.16,46.73V40.48h1.21v6.25Z"/><path class="cls-6" d="M61.14,46.73V43.92c0-.68-.27-.91-.8-.91a1.55,1.55,0,0,0-1,.43v3.29H58.14V42.14L59.32,42v.73A2.11,2.11,0,0,1,60.84,42a1.41,1.41,0,0,1,1.48,1.59v3.17Z"/><path class="cls-6" d="M64.54,41.28a.71.71,0,1,1,0-1.42.71.71,0,1,1,0,1.42ZM64,46.73V42.15L65.13,42v4.75Z"/><path class="cls-6" d="M68.42,46.88c-1,0-1.57-.45-1.53-1.56L67,43.15l-.72-.08,0-.75.72-.23,0-1h1.14l0,1.08h1.3l0,1H68.06L68,45.25a.54.54,0,0,0,.61.63,2.3,2.3,0,0,0,.72-.14l.16,1A3.12,3.12,0,0,1,68.42,46.88Z"/><path class="cls-6" d="M71.36,41.28a.71.71,0,1,1,0-1.42.71.71,0,1,1,0,1.42Zm-.59,5.45V42.15L72,42v4.75Z"/><path class="cls-6" d="M76,46.2a1.63,1.63,0,0,1-1.3.68,1.34,1.34,0,0,1-1.43-1.3c0-.85.62-1.57,2.73-1.64v-.11c0-.62-.26-.88-.92-.88a3.34,3.34,0,0,0-1.53.49l-.24-.93A3.83,3.83,0,0,1,75.27,42c1.42,0,2,.63,1.94,1.9v1.65c0,.35.06.4.41.42l-.09.89c-.88.1-1.29-.17-1.46-.63Zm0-1.64c-1.15.14-1.57.37-1.57.86a.62.62,0,0,0,.69.6,1.18,1.18,0,0,0,.88-.4Z"/><path class="cls-6" d="M78.82,46.73V40.05L80,39.89v6.84Z"/><path class="cls-6" d="M86.76,46.2a1.63,1.63,0,0,1-1.3.68A1.34,1.34,0,0,1,84,45.58c0-.85.62-1.57,2.73-1.64v-.11c0-.62-.26-.88-.92-.88a3.34,3.34,0,0,0-1.53.49l-.24-.93A3.83,3.83,0,0,1,86,42c1.42,0,2,.63,1.94,1.9v1.65c0,.35.06.4.41.42l-.09.89c-.88.1-1.29-.17-1.46-.63Zm0-1.64c-1.15.14-1.57.37-1.57.86a.62.62,0,0,0,.69.6,1.18,1.18,0,0,0,.88-.4Z"/><path class="cls-6" d="M92,42c1.22,0,2,1,2,2.41a2.34,2.34,0,0,1-2.33,2.49,3.62,3.62,0,0,1-1-.13v2.19H89.55V42.14L90.73,42v.58A1.85,1.85,0,0,1,92,42Zm-1.29,3.7a1.41,1.41,0,0,0,.87.26c.79,0,1.24-.64,1.24-1.5S92.41,43,91.68,43a1.38,1.38,0,0,0-1,.38Z"/><path class="cls-6" d="M97.9,42c1.22,0,2,1,2,2.41a2.34,2.34,0,0,1-2.33,2.49,3.62,3.62,0,0,1-1-.13v2.19H95.43V42.14L96.61,42v.58A1.85,1.85,0,0,1,97.9,42Zm-1.29,3.7a1.41,1.41,0,0,0,.87.26c.79,0,1.24-.64,1.24-1.5S98.29,43,97.56,43a1.38,1.38,0,0,0-1,.38Z"/><path class="cls-6" d="M101.31,46.73V40.05l1.18-.16v6.84Z"/><path class="cls-6" d="M104.74,41.28a.71.71,0,1,1,0-1.42.71.71,0,1,1,0,1.42Zm-.59,5.45V42.15l1.18-.17v4.75Z"/><path class="cls-6" d="M109.1,46.88a2.22,2.22,0,0,1-2.38-2.44A2.31,2.31,0,0,1,109.14,42a3.09,3.09,0,0,1,1.59.39l-.25,1a2.33,2.33,0,0,0-1.24-.37c-.85,0-1.31.58-1.31,1.47a1.31,1.31,0,0,0,1.31,1.49,2.36,2.36,0,0,0,1.27-.36l.19,1A3.21,3.21,0,0,1,109.1,46.88Z"/><path class="cls-6" d="M114.5,46.2a1.62,1.62,0,0,1-1.29.68,1.34,1.34,0,0,1-1.43-1.3c0-.85.62-1.57,2.72-1.64v-.11c0-.62-.26-.88-.92-.88a3.34,3.34,0,0,0-1.52.49l-.24-.93a3.83,3.83,0,0,1,1.93-.54c1.41,0,2,.63,1.93,1.9v1.65c0,.35.06.4.41.42l-.09.89c-.88.1-1.29-.17-1.46-.63Zm0-1.64c-1.14.14-1.56.37-1.56.86a.61.61,0,0,0,.68.6,1.16,1.16,0,0,0,.88-.4Z"/><path class="cls-6" d="M118.92,46.88c-1,0-1.56-.45-1.52-1.56l.07-2.17-.72-.08,0-.75.72-.23,0-1h1.14l0,1.08h1.3l0,1h-1.33l-.07,2.13c0,.43.21.63.61.63a2.3,2.3,0,0,0,.72-.14l.16,1A3.12,3.12,0,0,1,118.92,46.88Z"/><path class="cls-6" d="M121.87,41.28a.71.71,0,1,1,0-1.42.71.71,0,1,1,0,1.42Zm-.59,5.45V42.15l1.18-.17v4.75Z"/><path class="cls-6" d="M126.17,46.88a2.25,2.25,0,0,1-2.33-2.45A2.32,2.32,0,0,1,126.23,42a2.26,2.26,0,0,1,2.33,2.46A2.32,2.32,0,0,1,126.17,46.88Zm0-4c-.77,0-1.19.62-1.19,1.51s.44,1.5,1.21,1.5,1.18-.6,1.18-1.49S127,42.91,126.19,42.91Z"/><path class="cls-6" d="M133,46.73V43.92c0-.68-.27-.91-.8-.91a1.55,1.55,0,0,0-1,.43v3.29H130V42.14l1.17-.16v.73a2.11,2.11,0,0,1,1.52-.74,1.41,1.41,0,0,1,1.48,1.59v3.17Z"/><path class="cls-7" d="M99.86,55.66a1.6,1.6,0,0,1-1.75,1.55,2.55,2.55,0,0,1-1.28-.32l.12-.45a2.36,2.36,0,0,0,1.18.31,1.07,1.07,0,0,0,1.21-1c0-.61-.47-.94-1.12-1a4.85,4.85,0,0,0-.73.07v-.4c1-.23,1.65-.63,1.65-1.27s-.37-.83-1-.83a2,2,0,0,0-1.19.48l-.18-.41a2.32,2.32,0,0,1,1.41-.53,1.27,1.27,0,0,1,1.44,1.23,1.5,1.5,0,0,1-1.09,1.31A1.3,1.3,0,0,1,99.86,55.66Z"/><path class="cls-7" d="M102.64,55.83a2,2,0,1,1,1.94-2A1.89,1.89,0,0,1,102.64,55.83Zm0-3.51a1.52,1.52,0,1,0,1.44,1.52A1.43,1.43,0,0,0,102.64,52.32Z"/><path class="cls-7" d="M112.58,55.73V53.37c0-.64-.25-.94-.78-.94a1.57,1.57,0,0,0-1,.47,3.22,3.22,0,0,1,0,.33v2.5h-.49V53.37c0-.64-.25-.94-.78-.94a1.54,1.54,0,0,0-1,.43v2.87H108V52.06l.5-.1v.5a1.73,1.73,0,0,1,1.16-.5,1,1,0,0,1,1,.61,1.87,1.87,0,0,1,1.29-.61c.7,0,1.13.46,1.13,1.26v2.51Z"/><path class="cls-7" d="M114.78,51.23a.34.34,0,0,1-.34-.37.34.34,0,1,1,.67,0A.34.34,0,0,1,114.78,51.23Zm-.25,4.5V52.06l.5-.1v3.77Z"/><path class="cls-7" d="M118.93,55.73V53.36c0-.64-.26-.93-.81-.93A1.65,1.65,0,0,0,117,53v2.78h-.5V52.06l.5-.1v.6a1.9,1.9,0,0,1,1.25-.6,1.11,1.11,0,0,1,1.16,1.26v2.51Z"/><path class="cls-7" d="M121.34,52.06v2.37c0,.64.25.93.79.93a1.66,1.66,0,0,0,1.13-.52V52.06h.49v3.67l-.49.1v-.59a1.89,1.89,0,0,1-1.27.59,1.1,1.1,0,0,1-1.15-1.25V52.06Z"/><path class="cls-7" d="M126.23,55.85c-.69,0-1-.39-1-1.15l.06-2.17-.56,0,0-.32.55-.12,0-.83h.47l0,.85H127l0,.44h-1.21l-.06,2.19c0,.46.15.69.54.69a1.73,1.73,0,0,0,.7-.18l.09.43A2,2,0,0,1,126.23,55.85Z"/><path class="cls-7" d="M128.4,54a1.31,1.31,0,0,0,1.28,1.42,1.92,1.92,0,0,0,1.06-.31l.1.46a2.27,2.27,0,0,1-1.18.31,1.75,1.75,0,0,1-1.76-1.9,1.8,1.8,0,0,1,1.72-2A1.26,1.26,0,0,1,131,53.31a2.21,2.21,0,0,1-.08.59H128.4Zm2.06-.44a.86.86,0,0,0,0-.16.84.84,0,0,0-.88-.94,1.19,1.19,0,0,0-1.16,1.11Z"/><path class="cls-7" d="M133.1,55.83a2.3,2.3,0,0,1-1.19-.33l.13-.45a2.08,2.08,0,0,0,1.08.33c.44,0,.82-.21.82-.61s-.46-.57-.92-.71-1.06-.4-1.06-1A1.1,1.1,0,0,1,133.2,52a2.49,2.49,0,0,1,1.11.27l-.14.45a2.17,2.17,0,0,0-1-.27c-.45,0-.74.21-.74.56s.44.54.91.69,1.08.39,1.08,1.07A1.18,1.18,0,0,1,133.1,55.83Z"/><path class="cls-6" d="M161,66.36a2.91,2.91,0,0,0-1.64-.5,2,2,0,0,0-2,2.2,2,2,0,0,0,2,2.25,3.06,3.06,0,0,0,1.71-.56l.23,1.12a4.15,4.15,0,0,1-2,.48,3,3,0,0,1-3.23-3.25,3.08,3.08,0,0,1,3.26-3.29,4.34,4.34,0,0,1,2,.49Z"/><path class="cls-6" d="M165.81,71.21V68.4c0-.68-.27-.91-.77-.91a1.56,1.56,0,0,0-1,.43v3.29h-1.18V64.53l1.18-.16v2.81a2.12,2.12,0,0,1,1.56-.73A1.4,1.4,0,0,1,167,68v3.17Z"/><path class="cls-6" d="M169.76,66.6v2.81c0,.68.28.9.78.9a1.51,1.51,0,0,0,1-.4V66.6h1.18v4.58l-1.18.15v-.67a2.14,2.14,0,0,1-1.52.69,1.4,1.4,0,0,1-1.45-1.58V66.6Z"/><path class="cls-6" d="M175.57,71.21h-1.18V66.63l1.18-.17v.75a1.33,1.33,0,0,1,1.2-.76,1.59,1.59,0,0,1,.82.21l-.26,1.06a1.37,1.37,0,0,0-.66-.18,1.31,1.31,0,0,0-1.1.82Z"/><path class="cls-6" d="M180.76,71.35a2.22,2.22,0,0,1-2.39-2.43,2.31,2.31,0,0,1,2.43-2.47,3.09,3.09,0,0,1,1.59.39l-.25,1a2.36,2.36,0,0,0-1.25-.37c-.85,0-1.31.58-1.31,1.47a1.31,1.31,0,0,0,1.31,1.49,2.37,2.37,0,0,0,1.28-.36l.19,1A3.32,3.32,0,0,1,180.76,71.35Z"/><path class="cls-6" d="M186.74,71.21V68.4c0-.68-.27-.91-.77-.91a1.56,1.56,0,0,0-1.05.43v3.29h-1.18V64.53l1.18-.16v2.81a2.12,2.12,0,0,1,1.56-.73A1.4,1.4,0,0,1,187.92,68v3.17Z"/><path class="cls-6" d="M194.65,70.68a1.62,1.62,0,0,1-1.3.67,1.33,1.33,0,0,1-1.43-1.29c0-.85.62-1.57,2.73-1.64v-.11c0-.62-.26-.88-.92-.88a3.34,3.34,0,0,0-1.53.49L192,67a3.83,3.83,0,0,1,1.93-.54c1.42,0,2,.63,1.94,1.9V70c0,.35.06.4.41.42l-.09.89c-.88.09-1.29-.17-1.46-.63Zm0-1.64c-1.15.14-1.57.37-1.57.86a.62.62,0,0,0,.69.6,1.18,1.18,0,0,0,.88-.4Z"/><path class="cls-6" d="M198.87,71.36a4,4,0,0,1-1.79-.42l.26-.92a3.36,3.36,0,0,0,1.56.43c.46,0,.76-.19.76-.51s-.39-.49-.93-.62c-.87-.2-1.56-.56-1.56-1.43s.73-1.44,1.84-1.44a4.07,4.07,0,0,1,1.68.37l-.26.92a3.56,3.56,0,0,0-1.45-.38c-.43,0-.69.16-.69.46s.39.47.93.6c.88.21,1.57.55,1.57,1.45S200.05,71.36,198.87,71.36Z"/><path class="cls-6" d="M203.58,71.36a4,4,0,0,1-1.79-.42l.26-.92a3.36,3.36,0,0,0,1.56.43c.46,0,.76-.19.76-.51s-.39-.49-.93-.62c-.87-.2-1.56-.56-1.56-1.43s.73-1.44,1.84-1.44a4.07,4.07,0,0,1,1.68.37l-.26.92a3.56,3.56,0,0,0-1.45-.38c-.43,0-.69.16-.69.46s.39.47.93.6c.88.21,1.57.55,1.57,1.45S204.76,71.36,203.58,71.36Z"/><path class="cls-6" d="M207.75,69.16a1.29,1.29,0,0,0,1.38,1.26,2.84,2.84,0,0,0,1.44-.42l.15,1a3.74,3.74,0,0,1-1.67.37,2.28,2.28,0,0,1-2.46-2.4,2.33,2.33,0,0,1,2.38-2.5,1.74,1.74,0,0,1,1.9,1.87,3.06,3.06,0,0,1-.1.77l-3,0Zm2-.73v-.08c0-.62-.27-1-.88-1a1.14,1.14,0,0,0-1.1,1.1Z"/><path class="cls-6" d="M213.68,71.36a4,4,0,0,1-1.79-.42l.26-.92a3.36,3.36,0,0,0,1.56.43c.46,0,.76-.19.76-.51s-.39-.49-.93-.62c-.87-.2-1.56-.56-1.56-1.43s.73-1.44,1.84-1.44a4.07,4.07,0,0,1,1.68.37l-.26.92a3.56,3.56,0,0,0-1.45-.38c-.43,0-.69.16-.69.46s.39.47.93.6c.88.21,1.57.55,1.57,1.45S214.86,71.36,213.68,71.36Z"/><path class="cls-6" d="M218.39,71.36a4,4,0,0,1-1.79-.42l.26-.92a3.36,3.36,0,0,0,1.56.43c.46,0,.76-.19.76-.51s-.39-.49-.93-.62c-.87-.2-1.56-.56-1.56-1.43s.73-1.44,1.84-1.44a4.07,4.07,0,0,1,1.68.37l-.26.92a3.56,3.56,0,0,0-1.45-.38c-.43,0-.69.16-.69.46s.39.47.93.6c.88.21,1.57.55,1.57,1.45S219.57,71.36,218.39,71.36Z"/><path class="cls-6" d="M227.46,71.21v-2.8c0-.68-.27-.92-.76-.92a1.47,1.47,0,0,0-1,.41v3.31h-1.18v-2.8c0-.68-.26-.92-.75-.92a1.36,1.36,0,0,0-1,.38v3.34h-1.18V66.62l1.18-.16v.65a2,2,0,0,1,1.47-.66,1.31,1.31,0,0,1,1.26.79,2.2,2.2,0,0,1,1.64-.79,1.4,1.4,0,0,1,1.41,1.6v3.16Z"/><path class="cls-6" d="M231.15,69.16a1.29,1.29,0,0,0,1.38,1.26A2.84,2.84,0,0,0,234,70l.15,1a3.74,3.74,0,0,1-1.67.37A2.28,2.28,0,0,1,230,69a2.33,2.33,0,0,1,2.38-2.5,1.74,1.74,0,0,1,1.9,1.87,3.06,3.06,0,0,1-.1.77l-3,0Zm2-.73v-.08c0-.62-.27-1-.88-1a1.14,1.14,0,0,0-1.1,1.1Z"/><path class="cls-6" d="M238.65,71.21V68.4c0-.68-.27-.91-.8-.91a1.55,1.55,0,0,0-1,.43v3.29h-1.18V66.62l1.18-.16v.73a2.11,2.11,0,0,1,1.52-.74A1.41,1.41,0,0,1,239.83,68v3.17Z"/><path class="cls-6" d="M243.09,71.35c-1,0-1.57-.44-1.53-1.55l.07-2.17-.72-.08,0-.75.72-.23,0-1h1.14l0,1.08h1.3l0,1h-1.34l-.06,2.13a.54.54,0,0,0,.61.63,2.3,2.3,0,0,0,.72-.14l.16,1A3.38,3.38,0,0,1,243.09,71.35Z"/><path class="cls-7" d="M156.09,80.21v-.46c1.32-1,2.15-1.57,2.15-2.21a.76.76,0,0,0-.84-.75,1.89,1.89,0,0,0-1.13.46l-.18-.42a2.22,2.22,0,0,1,1.36-.5,1.18,1.18,0,0,1,1.31,1.15c0,.87-.89,1.44-2,2.25H159v.48Z"/><path class="cls-7" d="M166.84,80.21V77.85c0-.64-.25-.94-.77-.94a1.55,1.55,0,0,0-1,.47c0,.05,0,.24,0,.33v2.5h-.49V77.85c0-.64-.25-.94-.78-.94a1.61,1.61,0,0,0-1,.42v2.88h-.49V76.54l.49-.1v.5a1.77,1.77,0,0,1,1.16-.5,1,1,0,0,1,1,.61,1.85,1.85,0,0,1,1.29-.61c.7,0,1.13.46,1.13,1.26v2.51Z"/><path class="cls-7" d="M170.32,80.31a1.76,1.76,0,0,1-1.77-1.93,1.8,1.8,0,0,1,1.81-1.94,1.76,1.76,0,0,1,1.76,1.93A1.81,1.81,0,0,1,170.32,80.31Zm0-3.42a1.5,1.5,0,1,0,1.3,1.49A1.33,1.33,0,0,0,170.33,76.89Z"/><path class="cls-7" d="M175.77,80.21V77.84c0-.64-.25-.93-.81-.93a1.69,1.69,0,0,0-1.11.52v2.78h-.49V76.54l.49-.1V77a1.89,1.89,0,0,1,1.25-.6,1.11,1.11,0,0,1,1.17,1.25v2.52Z"/><path class="cls-7" d="M178.72,80.33c-.69,0-1-.39-1-1.16L177.8,77l-.56,0,0-.32.55-.12,0-.84h.47l0,.86h1.22l0,.44h-1.21l-.06,2.19c0,.46.16.69.54.69a1.73,1.73,0,0,0,.7-.18l.09.43A2,2,0,0,1,178.72,80.33Z"/><path class="cls-7" d="M183.08,80.21V77.84c0-.64-.25-.93-.78-.93a1.66,1.66,0,0,0-1.13.52v2.78h-.5V74.82l.5-.11V77a1.87,1.87,0,0,1,1.27-.58,1.1,1.1,0,0,1,1.14,1.25v2.52Z"/><path class="cls-7" d="M185.92,80.31a2.34,2.34,0,0,1-1.2-.33l.13-.45a2.1,2.1,0,0,0,1.08.33c.44,0,.83-.21.83-.61s-.47-.57-.92-.72-1.07-.4-1.07-1a1.11,1.11,0,0,1,1.24-1,2.49,2.49,0,0,1,1.11.27l-.14.45a2.14,2.14,0,0,0-1-.27c-.45,0-.73.2-.73.56s.43.54.9.68,1.08.4,1.08,1.08A1.17,1.17,0,0,1,185.92,80.31Z"/><circle class="cls-3" cx="145.54" cy="68.21" r="5"/><circle class="cls-8" cx="185.59" cy="225.04" r="5"/><path class="cls-6" d="M198,126.36v5.18h-1.21v-5.18h-2.09v-1.07h5.39v1.07Z"/><path class="cls-6" d="M201.31,129.49a1.29,1.29,0,0,0,1.38,1.26,2.84,2.84,0,0,0,1.44-.42l.15,1a3.61,3.61,0,0,1-1.67.38,2.29,2.29,0,0,1-2.46-2.41,2.33,2.33,0,0,1,2.38-2.5,1.74,1.74,0,0,1,1.9,1.87,3.06,3.06,0,0,1-.1.77l-3,0Zm2-.73v-.08c0-.62-.27-1-.88-1a1.14,1.14,0,0,0-1.1,1.1Z"/><path class="cls-6" d="M208.23,131a1.63,1.63,0,0,1-1.3.68,1.34,1.34,0,0,1-1.43-1.3c0-.85.62-1.57,2.73-1.64v-.11c0-.62-.26-.88-.92-.88a3.34,3.34,0,0,0-1.53.49l-.24-.93a3.83,3.83,0,0,1,1.93-.54c1.42,0,2,.63,1.94,1.9v1.65c0,.35.06.4.41.42l-.09.89c-.88.1-1.29-.17-1.46-.63Zm0-1.64c-1.15.14-1.57.37-1.57.86a.62.62,0,0,0,.69.6,1.18,1.18,0,0,0,.88-.4Z"/><path class="cls-6" d="M216.8,131.54v-2.8c0-.68-.26-.92-.75-.92a1.47,1.47,0,0,0-1,.41v3.31h-1.18v-2.8c0-.68-.26-.92-.75-.92a1.36,1.36,0,0,0-1,.38v3.34H211V127l1.18-.16v.65a2,2,0,0,1,1.47-.66,1.31,1.31,0,0,1,1.26.79,2.2,2.2,0,0,1,1.64-.79c.87,0,1.41.6,1.41,1.6v3.16Z"/><path class="cls-6" d="M228,126.53l-1.62,4.92h-1.28l-1.64-4.92-.06,5h-1.15l.21-6.25h1.69l1.61,4.92,1.61-4.92H229l.21,6.25H228Z"/><path class="cls-6" d="M233.22,131a1.63,1.63,0,0,1-1.3.68,1.34,1.34,0,0,1-1.43-1.3c0-.85.62-1.57,2.73-1.64v-.11c0-.62-.26-.88-.92-.88a3.34,3.34,0,0,0-1.53.49l-.24-.93a3.83,3.83,0,0,1,1.93-.54c1.42,0,2,.63,1.94,1.9v1.65c0,.35.06.4.41.42l-.09.89c-.88.1-1.29-.17-1.46-.63Zm0-1.64c-1.15.14-1.57.37-1.57.86a.62.62,0,0,0,.69.6,1.18,1.18,0,0,0,.88-.4Z"/><path class="cls-6" d="M237.64,131.69c-1,0-1.57-.45-1.53-1.56l.07-2.17-.72-.08,0-.75.72-.23,0-1h1.14l0,1.08h1.3l0,1h-1.34l-.06,2.13a.54.54,0,0,0,.61.63,2.3,2.3,0,0,0,.72-.14l.16,1A3.12,3.12,0,0,1,237.64,131.69Z"/><path class="cls-6" d="M242.06,131.69a2.23,2.23,0,0,1-2.39-2.44,2.31,2.31,0,0,1,2.43-2.47,3.09,3.09,0,0,1,1.59.39l-.25,1a2.36,2.36,0,0,0-1.25-.37c-.85,0-1.31.58-1.31,1.47a1.31,1.31,0,0,0,1.31,1.49,2.37,2.37,0,0,0,1.28-.36l.19,1A3.21,3.21,0,0,1,242.06,131.69Z"/><path class="cls-6" d="M248,131.54v-2.81c0-.68-.27-.91-.77-.91a1.56,1.56,0,0,0-1.05.43v3.29H245v-6.68l1.18-.16v2.81a2.12,2.12,0,0,1,1.56-.73,1.4,1.4,0,0,1,1.44,1.59v3.17Z"/><path class="cls-6" d="M251.44,126.09a.71.71,0,1,1,0-1.42.71.71,0,1,1,0,1.42Zm-.59,5.45V127l1.18-.17v4.75Z"/><path class="cls-6" d="M256.69,131.54v-2.81c0-.68-.27-.91-.8-.91a1.55,1.55,0,0,0-1,.43v3.29h-1.18V127l1.18-.16v.73a2.11,2.11,0,0,1,1.52-.74,1.41,1.41,0,0,1,1.48,1.59v3.17Z"/><path class="cls-6" d="M259.24,130.93a1.11,1.11,0,0,1,.85-1,1.55,1.55,0,0,1-.84-1.42,1.83,1.83,0,0,1,2-1.76,3.29,3.29,0,0,1,1.3.29l1.24-.11.05,1-.88-.15a1.31,1.31,0,0,1,.21.72,1.77,1.77,0,0,1-1.93,1.68,2.42,2.42,0,0,1-.63-.08c-.16.06-.36.21-.36.4s.21.36,1,.36h.48c1.32,0,2.07.37,2.07,1.27,0,1.09-1.23,1.84-2.69,1.84-1.22,0-2.19-.45-2.19-1.28a1.08,1.08,0,0,1,1-1A.91.91,0,0,1,259.24,130.93Zm.73,1.58c0,.43.53.73,1.31.73s1.43-.3,1.43-.78-.42-.53-1.28-.53c-.29,0-.69,0-.88,0S260,132.23,260,132.51Zm1.32-3c.53,0,.83-.38.83-1a.83.83,0,0,0-.88-.93.86.86,0,0,0-.85,1A.85.85,0,0,0,261.29,129.47Z"/><path class="cls-7" d="M194.83,140.54v-.46c1.33-1,2.16-1.56,2.16-2.2a.76.76,0,0,0-.84-.76,1.91,1.91,0,0,0-1.13.47l-.18-.43a2.22,2.22,0,0,1,1.36-.5,1.18,1.18,0,0,1,1.31,1.15c0,.87-.89,1.44-2,2.26h2.16v.47Z"/><path class="cls-7" d="M205.59,140.54v-2.36c0-.64-.25-.94-.77-.94a1.49,1.49,0,0,0-1,.48s0,.24,0,.32v2.5h-.5v-2.36c0-.64-.24-.94-.77-.94a1.57,1.57,0,0,0-1,.43v2.87H201v-3.66l.49-.11v.51a1.74,1.74,0,0,1,1.16-.51,1,1,0,0,1,1,.61,1.85,1.85,0,0,1,1.29-.61c.7,0,1.13.46,1.13,1.27v2.5Z"/><path class="cls-7" d="M209.07,140.64a1.76,1.76,0,0,1-1.77-1.92,1.81,1.81,0,0,1,1.81-1.95,1.76,1.76,0,0,1,1.76,1.93A1.81,1.81,0,0,1,209.07,140.64Zm0-3.42a1.5,1.5,0,0,0,0,3,1.5,1.5,0,0,0,0-3Z"/><path class="cls-7" d="M214.52,140.54v-2.37c0-.64-.25-.93-.81-.93a1.67,1.67,0,0,0-1.11.52v2.78h-.49v-3.66l.49-.11v.6a1.94,1.94,0,0,1,1.25-.6A1.11,1.11,0,0,1,215,138v2.51Z"/><path class="cls-7" d="M217.47,140.66c-.69,0-1-.39-1-1.15l.06-2.17-.56,0,0-.31.55-.13,0-.83h.47l0,.85h1.22l0,.44H217l-.06,2.19c0,.47.16.69.54.69a1.73,1.73,0,0,0,.7-.18l.09.44A2,2,0,0,1,217.47,140.66Z"/><path class="cls-7" d="M221.83,140.54v-2.37c0-.64-.25-.93-.78-.93a1.7,1.7,0,0,0-1.14.52v2.78h-.49v-5.39l.49-.11v2.32a1.88,1.88,0,0,1,1.28-.59,1.1,1.1,0,0,1,1.14,1.26v2.51Z"/><path class="cls-7" d="M224.67,140.64a2.31,2.31,0,0,1-1.2-.33l.13-.45a2,2,0,0,0,1.08.33c.44,0,.83-.21.83-.61s-.47-.57-.92-.71-1.07-.4-1.07-1a1.1,1.1,0,0,1,1.24-1.06,2.57,2.57,0,0,1,1.12.27l-.15.45a2.14,2.14,0,0,0-1-.27c-.45,0-.73.21-.73.56s.43.54.9.69,1.08.39,1.08,1.07A1.17,1.17,0,0,1,224.67,140.64Z"/><path class="cls-6" d="M198,186.36v5.18h-1.21v-5.18h-2.09v-1.07h5.39v1.07Z"/><path class="cls-6" d="M201.6,191.54h-1.18V187l1.18-.17v.75a1.33,1.33,0,0,1,1.2-.76,1.59,1.59,0,0,1,.82.21l-.26,1.06a1.37,1.37,0,0,0-.66-.18,1.31,1.31,0,0,0-1.1.82Z"/><path class="cls-6" d="M207.09,191a1.63,1.63,0,0,1-1.3.68,1.34,1.34,0,0,1-1.43-1.3c0-.85.62-1.57,2.73-1.64v-.11c0-.62-.26-.88-.92-.88a3.34,3.34,0,0,0-1.53.49l-.24-.93a3.83,3.83,0,0,1,1.93-.54c1.42,0,2,.63,1.94,1.9v1.65c0,.35.06.4.41.42l-.09.89c-.88.1-1.29-.17-1.46-.63Zm0-1.64c-1.15.14-1.57.37-1.57.86a.62.62,0,0,0,.69.6,1.18,1.18,0,0,0,.88-.4Z"/><path class="cls-6" d="M210.47,186.09a.71.71,0,1,1,0-1.42.71.71,0,1,1,0,1.42Zm-.59,5.45V187l1.18-.17v4.75Z"/><path class="cls-6" d="M215.72,191.54v-2.81c0-.68-.27-.91-.8-.91a1.55,1.55,0,0,0-1,.43v3.29h-1.18V187l1.18-.16v.73a2.11,2.11,0,0,1,1.52-.74,1.41,1.41,0,0,1,1.48,1.59v3.17Z"/><path class="cls-6" d="M219.12,186.09a.71.71,0,1,1,0-1.42.71.71,0,1,1,0,1.42Zm-.59,5.45V187l1.18-.17v4.75Z"/><path class="cls-6" d="M224.37,191.54v-2.81c0-.68-.27-.91-.8-.91a1.55,1.55,0,0,0-1,.43v3.29h-1.18V187l1.18-.16v.73a2.11,2.11,0,0,1,1.52-.74,1.41,1.41,0,0,1,1.48,1.59v3.17Z"/><path class="cls-6" d="M226.92,190.93a1.11,1.11,0,0,1,.85-1,1.55,1.55,0,0,1-.84-1.42,1.83,1.83,0,0,1,2-1.76,3.29,3.29,0,0,1,1.3.29l1.24-.11,0,1-.87-.15a1.31,1.31,0,0,1,.21.72,1.77,1.77,0,0,1-1.93,1.68,2.42,2.42,0,0,1-.63-.08c-.16.06-.36.21-.36.4s.21.36.95.36h.48c1.32,0,2.07.37,2.07,1.27,0,1.09-1.23,1.84-2.69,1.84-1.22,0-2.19-.45-2.19-1.28a1.08,1.08,0,0,1,1-1A.91.91,0,0,1,226.92,190.93Zm.73,1.58c0,.43.53.73,1.31.73s1.43-.3,1.43-.78-.42-.53-1.28-.53c-.29,0-.69,0-.88,0S227.65,192.23,227.65,192.51Zm1.32-3c.53,0,.83-.38.83-1a.83.83,0,0,0-.88-.93.86.86,0,0,0-.85,1A.85.85,0,0,0,229,189.47Z"/><path class="cls-7" d="M195.75,197.29l-.92.35,0-.45,1.44-.53v3.88h-.49Z"/><path class="cls-7" d="M204.68,200.54v-2.36c0-.64-.25-.94-.77-.94a1.54,1.54,0,0,0-1,.48,2.73,2.73,0,0,1,0,.32v2.5h-.5v-2.36c0-.64-.24-.94-.77-.94a1.55,1.55,0,0,0-1,.43v2.87h-.49v-3.66l.49-.11v.51a1.74,1.74,0,0,1,1.16-.51,1,1,0,0,1,1,.61,1.87,1.87,0,0,1,1.3-.61c.69,0,1.13.46,1.13,1.27v2.5Z"/><path class="cls-7" d="M208.15,200.64a1.76,1.76,0,0,1-1.76-1.92,1.81,1.81,0,0,1,1.8-1.95A1.75,1.75,0,0,1,210,198.7,1.8,1.8,0,0,1,208.15,200.64Zm0-3.42a1.5,1.5,0,1,0,1.3,1.5A1.33,1.33,0,0,0,208.17,197.22Z"/><path class="cls-7" d="M213.61,200.54v-2.37c0-.64-.26-.93-.81-.93a1.67,1.67,0,0,0-1.11.52v2.78h-.49v-3.66l.49-.11v.6a1.92,1.92,0,0,1,1.25-.6,1.11,1.11,0,0,1,1.17,1.26v2.51Z"/><path class="cls-7" d="M216.56,200.66c-.69,0-1-.39-1-1.15l0-2.17-.55,0,0-.31.55-.13,0-.83h.48l0,.85h1.23l0,.44h-1.21l-.06,2.19c0,.47.15.69.54.69a1.73,1.73,0,0,0,.7-.18l.09.44A2,2,0,0,1,216.56,200.66Z"/><path class="cls-7" d="M220.92,200.54v-2.37c0-.64-.25-.93-.78-.93a1.68,1.68,0,0,0-1.14.52v2.78h-.49v-5.39L219,195v2.32a1.88,1.88,0,0,1,1.27-.59,1.11,1.11,0,0,1,1.15,1.26v2.51Z"/><path class="cls-9" d="M197.22,228h-2V221.8h2.12c2.13,0,3.37,1.21,3.37,3.07S199.44,228,197.22,228Zm0-5.22h-.83V227h.89a2.1,2.1,0,1,0-.06-4.19Z"/><path class="cls-9" d="M202.2,228V221.8h4.26v1H203.4v1.57h2.51v1H203.4V227h3.06v1Z"/><path class="cls-9" d="M210,226.09h-.71V228H208V221.8h2c1.73,0,2.58.87,2.58,2.08C212.64,225.32,211.65,226.08,210,226.09Zm0-3.28h-.74v2.28l.78,0c.93,0,1.4-.42,1.4-1.15S210.94,222.81,210,222.81Z"/><path class="cls-9" d="M214.1,228V221.8h1.22V227h2.82V228Z"/><path class="cls-9" d="M222.1,228.19a3,3,0,0,1-3.21-3.26,3.14,3.14,0,0,1,3.22-3.28,3,3,0,0,1,3.19,3.24A3.14,3.14,0,0,1,222.1,228.19Zm0-5.52a2,2,0,0,0-2,2.22,2,2,0,1,0,2-2.22Z"/><path class="cls-9" d="M229.38,225.62V228h-1.21v-2.43L226,221.8h1.32l1.48,2.69,1.45-2.69h1.31Z"/><path class="cls-10" d="M51.35,123.69a2.91,2.91,0,0,0-1.64-.5,2,2,0,0,0-2,2.2,2,2,0,0,0,2,2.25,3.06,3.06,0,0,0,1.71-.56l.23,1.12a4.15,4.15,0,0,1-2,.49,3,3,0,0,1-3.23-3.26,3.08,3.08,0,0,1,3.26-3.29,4.34,4.34,0,0,1,2,.49Z"/><path class="cls-10" d="M53.13,128.54v-6.68l1.18-.16v6.84Z"/><path class="cls-10" d="M56.86,126.49a1.29,1.29,0,0,0,1.38,1.26,2.84,2.84,0,0,0,1.44-.42l.15,1a3.61,3.61,0,0,1-1.67.38,2.29,2.29,0,0,1-2.46-2.41,2.33,2.33,0,0,1,2.38-2.5,1.74,1.74,0,0,1,1.9,1.87,3.06,3.06,0,0,1-.1.77l-3,0Zm2-.73v-.08c0-.62-.27-1-.88-1a1.14,1.14,0,0,0-1.1,1.1Z"/><path class="cls-10" d="M63.78,128a1.63,1.63,0,0,1-1.3.68,1.34,1.34,0,0,1-1.43-1.3c0-.85.62-1.57,2.73-1.64v-.11c0-.62-.26-.88-.92-.88a3.34,3.34,0,0,0-1.53.49l-.24-.93a3.83,3.83,0,0,1,1.93-.54c1.42,0,2,.63,1.94,1.9v1.65c0,.35.06.4.41.42l-.09.89c-.88.1-1.29-.17-1.46-.63Zm0-1.64c-1.15.14-1.57.37-1.57.86a.62.62,0,0,0,.69.6,1.18,1.18,0,0,0,.88-.4Z"/><path class="cls-10" d="M67.75,128.54H66.57V124l1.18-.17v.75a1.33,1.33,0,0,1,1.2-.76,1.59,1.59,0,0,1,.82.21l-.26,1.06a1.37,1.37,0,0,0-.66-.18,1.31,1.31,0,0,0-1.1.82Z"/><path class="cls-10" d="M73.24,128a1.63,1.63,0,0,1-1.3.68,1.34,1.34,0,0,1-1.43-1.3c0-.85.62-1.57,2.73-1.64v-.11c0-.62-.26-.88-.92-.88a3.34,3.34,0,0,0-1.53.49l-.24-.93a3.83,3.83,0,0,1,1.93-.54c1.42,0,2,.63,1.94,1.9v1.65c0,.35.06.4.41.42l-.09.89c-.88.1-1.29-.17-1.46-.63Zm0-1.64c-1.15.14-1.57.37-1.57.86a.62.62,0,0,0,.69.6,1.18,1.18,0,0,0,.88-.4Z"/><path class="cls-10" d="M79,128.54v-2.81c0-.68-.27-.91-.8-.91a1.55,1.55,0,0,0-1,.43v3.29H76V124l1.18-.16v.73a2.11,2.11,0,0,1,1.52-.74,1.41,1.41,0,0,1,1.48,1.59v3.17Z"/><path class="cls-10" d="M84,128.69a2.23,2.23,0,0,1-2.39-2.44A2.31,2.31,0,0,1,84,123.78a3.09,3.09,0,0,1,1.59.39l-.25,1a2.36,2.36,0,0,0-1.25-.37c-.85,0-1.31.58-1.31,1.47a1.31,1.31,0,0,0,1.31,1.49,2.37,2.37,0,0,0,1.28-.36l.19,1A3.21,3.21,0,0,1,84,128.69Z"/><path class="cls-10" d="M87.78,126.49a1.29,1.29,0,0,0,1.38,1.26,2.84,2.84,0,0,0,1.44-.42l.15,1a3.61,3.61,0,0,1-1.67.38,2.29,2.29,0,0,1-2.46-2.41,2.33,2.33,0,0,1,2.38-2.5,1.74,1.74,0,0,1,1.9,1.87,3.06,3.06,0,0,1-.1.77l-3,0Zm2-.73v-.08c0-.62-.27-1-.88-1a1.14,1.14,0,0,0-1.1,1.1Z"/><path class="cls-10" d="M93.71,128.7a4,4,0,0,1-1.79-.43l.26-.92a3.36,3.36,0,0,0,1.56.43c.46,0,.76-.19.76-.51s-.39-.49-.93-.62c-.87-.2-1.56-.56-1.56-1.43s.73-1.44,1.84-1.44a4.07,4.07,0,0,1,1.68.37l-.26.92a3.56,3.56,0,0,0-1.45-.38c-.43,0-.69.16-.69.46s.39.47.93.6c.88.21,1.57.55,1.57,1.45S94.89,128.7,93.71,128.7Z"/><path class="cls-10" d="M67.48,137.47A1.59,1.59,0,0,1,65.74,139a2.67,2.67,0,0,1-1.29-.31l.13-.46a2.29,2.29,0,0,0,1.17.31A1.07,1.07,0,0,0,67,137.51c0-.6-.47-.94-1.12-1a3.88,3.88,0,0,0-.73.08v-.41c1-.23,1.66-.63,1.66-1.26s-.38-.84-1-.84a2,2,0,0,0-1.18.48l-.19-.41a2.33,2.33,0,0,1,1.42-.53,1.27,1.27,0,0,1,1.44,1.23,1.51,1.51,0,0,1-1.1,1.31A1.29,1.29,0,0,1,67.48,137.47Z"/><path class="cls-10" d="M75.25,137.54v-2.36c0-.64-.24-.94-.77-.94a1.53,1.53,0,0,0-1,.48,3,3,0,0,1,0,.32v2.5H73v-2.36c0-.64-.25-.94-.78-.94a1.54,1.54,0,0,0-1,.43v2.87h-.5v-3.66l.5-.11v.51a1.7,1.7,0,0,1,1.16-.51,1,1,0,0,1,1,.61,1.87,1.87,0,0,1,1.29-.61c.7,0,1.13.46,1.13,1.27v2.5Z"/><path class="cls-10" d="M78.73,137.64A1.76,1.76,0,0,1,77,135.71a1.81,1.81,0,0,1,1.81-1.94,1.76,1.76,0,0,1,1.76,1.93A1.81,1.81,0,0,1,78.73,137.64Zm0-3.42A1.5,1.5,0,1,0,80,135.71,1.33,1.33,0,0,0,78.75,134.22Z"/><path class="cls-10" d="M84.18,137.54v-2.37c0-.64-.25-.93-.8-.93a1.65,1.65,0,0,0-1.11.52v2.78h-.5v-3.66l.5-.11v.6a1.9,1.9,0,0,1,1.24-.6A1.11,1.11,0,0,1,84.68,135v2.51Z"/><path class="cls-10" d="M87.14,137.66c-.7,0-1-.39-1-1.15l.06-2.17-.56,0,0-.31.56-.13,0-.83h.47l0,.85h1.22l0,.44H86.68l-.06,2.19c0,.47.16.69.54.69a1.73,1.73,0,0,0,.7-.18l.09.44A2,2,0,0,1,87.14,137.66Z"/><path class="cls-10" d="M91.5,137.54v-2.37c0-.64-.26-.93-.79-.93a1.66,1.66,0,0,0-1.13.52v2.78h-.5v-5.39l.5-.11v2.32a1.84,1.84,0,0,1,1.27-.59A1.1,1.1,0,0,1,92,135v2.51Z"/><path class="cls-10" d="M94.33,137.64a2.34,2.34,0,0,1-1.2-.33l.14-.45a2,2,0,0,0,1.08.33c.44,0,.82-.21.82-.61s-.46-.57-.92-.71-1.06-.4-1.06-1a1.1,1.1,0,0,1,1.24-1.06,2.53,2.53,0,0,1,1.11.27l-.15.45a2.14,2.14,0,0,0-1-.27c-.44,0-.73.21-.73.56s.43.54.9.69,1.08.39,1.08,1.07A1.17,1.17,0,0,1,94.33,137.64Z"/><path class="cls-10" d="M30,238.86V244H28.83v-5.18H26.74v-1.07h5.39v1.07Z"/><path class="cls-10" d="M33.38,242a1.29,1.29,0,0,0,1.38,1.26,2.84,2.84,0,0,0,1.44-.42l.15,1a3.61,3.61,0,0,1-1.67.38,2.29,2.29,0,0,1-2.46-2.41,2.33,2.33,0,0,1,2.38-2.5,1.74,1.74,0,0,1,1.9,1.87,3.06,3.06,0,0,1-.1.77l-3,0Zm2-.73v-.08c0-.62-.27-1-.88-1a1.14,1.14,0,0,0-1.1,1.1Z"/><path class="cls-10" d="M40.3,243.51a1.63,1.63,0,0,1-1.3.68,1.34,1.34,0,0,1-1.43-1.3c0-.85.62-1.57,2.73-1.64v-.11c0-.62-.26-.88-.92-.88a3.34,3.34,0,0,0-1.53.49l-.24-.93a3.83,3.83,0,0,1,1.93-.54c1.42,0,2,.63,1.94,1.9v1.65c0,.35.06.4.41.42l-.09.89c-.88.1-1.29-.17-1.46-.63Zm0-1.64c-1.15.14-1.57.37-1.57.86a.62.62,0,0,0,.69.6,1.18,1.18,0,0,0,.88-.4Z"/><path class="cls-10" d="M48.88,244v-2.8c0-.68-.27-.92-.76-.92a1.47,1.47,0,0,0-1,.41V244H46v-2.8c0-.68-.26-.92-.75-.92a1.36,1.36,0,0,0-1,.38V244H43.09v-4.59l1.18-.16v.65a2,2,0,0,1,1.47-.66,1.31,1.31,0,0,1,1.26.79,2.2,2.2,0,0,1,1.64-.79,1.4,1.4,0,0,1,1.42,1.6V244Z"/><path class="cls-10" d="M60.05,239,58.42,244H57.14L55.5,239l-.06,5H54.29l.21-6.25h1.69l1.61,4.92,1.61-4.92h1.67l.2,6.25H60.1Z"/><path class="cls-10" d="M65.29,243.51a1.63,1.63,0,0,1-1.3.68,1.34,1.34,0,0,1-1.43-1.3c0-.85.62-1.57,2.73-1.64v-.11c0-.62-.26-.88-.92-.88a3.34,3.34,0,0,0-1.53.49l-.24-.93a3.83,3.83,0,0,1,1.93-.54c1.42,0,2,.63,1.94,1.9v1.65c0,.35.06.4.41.42l-.09.89c-.88.1-1.29-.17-1.46-.63Zm0-1.64c-1.15.14-1.57.37-1.57.86a.62.62,0,0,0,.69.6,1.18,1.18,0,0,0,.88-.4Z"/><path class="cls-10" d="M69.71,244.19c-1,0-1.57-.45-1.53-1.56l.07-2.17-.72-.08,0-.75.72-.23,0-1h1.14l0,1.08h1.3l0,1H69.35l-.06,2.13a.54.54,0,0,0,.61.63,2.3,2.3,0,0,0,.72-.14l.16,1A3.12,3.12,0,0,1,69.71,244.19Z"/><path class="cls-10" d="M74.13,244.19a2.23,2.23,0,0,1-2.39-2.44,2.31,2.31,0,0,1,2.43-2.47,3.09,3.09,0,0,1,1.59.39l-.25,1a2.36,2.36,0,0,0-1.25-.37c-.85,0-1.31.58-1.31,1.47a1.31,1.31,0,0,0,1.31,1.49,2.37,2.37,0,0,0,1.28-.36l.19,1A3.21,3.21,0,0,1,74.13,244.19Z"/><path class="cls-10" d="M80.11,244v-2.81c0-.68-.27-.91-.77-.91a1.56,1.56,0,0,0-1,.43V244H77.11v-6.68l1.18-.16V240a2.12,2.12,0,0,1,1.56-.73,1.4,1.4,0,0,1,1.44,1.59V244Z"/><path class="cls-10" d="M83.51,238.59a.71.71,0,1,1,0-1.42.71.71,0,1,1,0,1.42ZM82.92,244v-4.58l1.18-.17V244Z"/><path class="cls-10" d="M88.76,244v-2.81c0-.68-.27-.91-.8-.91a1.55,1.55,0,0,0-1,.43V244H85.76v-4.59l1.18-.16V240a2.11,2.11,0,0,1,1.52-.74,1.41,1.41,0,0,1,1.48,1.59V244Z"/><path class="cls-10" d="M91.31,243.43a1.11,1.11,0,0,1,.85-1,1.55,1.55,0,0,1-.84-1.42,1.83,1.83,0,0,1,2-1.76,3.29,3.29,0,0,1,1.3.29l1.24-.11,0,1-.88-.15a1.31,1.31,0,0,1,.21.72,1.77,1.77,0,0,1-1.93,1.68,2.42,2.42,0,0,1-.63-.08c-.16.06-.36.21-.36.4s.21.36,1,.36h.48c1.32,0,2.07.37,2.07,1.27,0,1.09-1.23,1.84-2.69,1.84-1.22,0-2.19-.45-2.19-1.28a1.08,1.08,0,0,1,1-1A.91.91,0,0,1,91.31,243.43ZM92,245c0,.43.53.73,1.31.73s1.43-.3,1.43-.78-.42-.53-1.28-.53c-.29,0-.69,0-.88,0S92,244.73,92,245Zm1.32-3c.53,0,.83-.38.83-1a.83.83,0,0,0-.88-.93.86.86,0,0,0-.85,1A.85.85,0,0,0,93.36,242Z"/><path class="cls-10" d="M64.5,253v-.46c1.33-1,2.16-1.56,2.16-2.2a.76.76,0,0,0-.84-.76,2,2,0,0,0-1.14.47l-.17-.43a2.18,2.18,0,0,1,1.36-.5,1.18,1.18,0,0,1,1.31,1.15c0,.87-.9,1.44-2,2.26h2.16V253Z"/><path class="cls-10" d="M75.26,253v-2.36c0-.64-.25-.94-.78-.94a1.53,1.53,0,0,0-1,.48,3,3,0,0,1,0,.32V253H73v-2.36c0-.64-.25-.94-.78-.94a1.54,1.54,0,0,0-1,.43V253h-.5v-3.66l.5-.11v.51a1.7,1.7,0,0,1,1.16-.51,1,1,0,0,1,1,.61,1.87,1.87,0,0,1,1.29-.61c.7,0,1.13.46,1.13,1.27V253Z"/><path class="cls-10" d="M78.73,253.14A1.76,1.76,0,0,1,77,251.22a1.82,1.82,0,0,1,1.81-1.95,1.76,1.76,0,0,1,1.76,1.93A1.8,1.8,0,0,1,78.73,253.14Zm0-3.42a1.5,1.5,0,1,0,1.29,1.5A1.33,1.33,0,0,0,78.75,249.72Z"/><path class="cls-10" d="M84.19,253v-2.37c0-.64-.26-.93-.81-.93a1.65,1.65,0,0,0-1.11.52V253h-.5v-3.66l.5-.11v.6a1.9,1.9,0,0,1,1.24-.6,1.11,1.11,0,0,1,1.17,1.26V253Z"/><path class="cls-10" d="M87.14,253.16c-.7,0-1-.39-1-1.15l0-2.17-.56,0,0-.31.55-.13,0-.83h.47l0,.85h1.22l0,.44H86.68L86.63,252c0,.47.15.69.53.69a1.82,1.82,0,0,0,.71-.18L88,253A2,2,0,0,1,87.14,253.16Z"/><path class="cls-10" d="M91.5,253v-2.37c0-.64-.26-.93-.79-.93a1.66,1.66,0,0,0-1.13.52V253h-.5v-5.39l.5-.11v2.32a1.84,1.84,0,0,1,1.27-.59A1.1,1.1,0,0,1,92,250.53V253Z"/><path class="cls-10" d="M94.33,253.14a2.34,2.34,0,0,1-1.2-.33l.14-.45a2,2,0,0,0,1.08.33c.44,0,.82-.21.82-.61s-.46-.57-.92-.71-1.06-.4-1.06-1a1.1,1.1,0,0,1,1.24-1.06,2.49,2.49,0,0,1,1.11.27l-.15.45a2.14,2.14,0,0,0-1-.27c-.44,0-.73.21-.73.56s.43.54.9.69,1.08.39,1.08,1.07A1.17,1.17,0,0,1,94.33,253.14Z"/><path class="cls-10" d="M15.06,305.31H13.83l-.52-1.48H10.79l-.51,1.48H9.05l2.28-6.25h1.48Zm-3-5.2-1,2.71H13Z"/><path class="cls-10" d="M18.6,300.55c1.22,0,2,1,2,2.41a2.34,2.34,0,0,1-2.33,2.49,3.62,3.62,0,0,1-1-.13v2.19H16.13v-6.79l1.18-.16v.58A1.85,1.85,0,0,1,18.6,300.55Zm-1.29,3.7a1.41,1.41,0,0,0,.87.26c.79,0,1.24-.64,1.24-1.5s-.43-1.47-1.16-1.47a1.38,1.38,0,0,0-1,.38Z"/><path class="cls-10" d="M24.48,300.55c1.22,0,2,1,2,2.41a2.34,2.34,0,0,1-2.33,2.49,3.62,3.62,0,0,1-1-.13v2.19H22v-6.79l1.18-.16v.58A1.85,1.85,0,0,1,24.48,300.55Zm-1.29,3.7a1.41,1.41,0,0,0,.87.26c.79,0,1.24-.64,1.24-1.5s-.43-1.47-1.16-1.47a1.38,1.38,0,0,0-.95.38Z"/><path class="cls-10" d="M30,305.46A2.25,2.25,0,0,1,27.62,303,2.32,2.32,0,0,1,30,300.54,2.26,2.26,0,0,1,32.34,303,2.32,2.32,0,0,1,30,305.46Zm0-4c-.77,0-1.19.62-1.19,1.51s.44,1.5,1.21,1.5,1.18-.6,1.18-1.49S30.73,301.49,30,301.49Z"/><path class="cls-10" d="M34.32,299.86a.71.71,0,1,1,0-1.42.71.71,0,1,1,0,1.42Zm-.59,5.45v-4.58l1.18-.17v4.75Z"/><path class="cls-10" d="M39.57,305.31V302.5c0-.68-.27-.91-.8-.91a1.55,1.55,0,0,0-1,.43v3.29H36.57v-4.59l1.18-.16v.73a2.11,2.11,0,0,1,1.52-.74,1.41,1.41,0,0,1,1.48,1.59v3.17Z"/><path class="cls-10" d="M44,305.46c-1,0-1.57-.45-1.53-1.56l.07-2.17-.72-.08,0-.75.72-.23,0-1h1.14l0,1.08H45l0,1H43.65l-.06,2.13a.54.54,0,0,0,.61.63,2.3,2.3,0,0,0,.72-.14l.16,1A3.12,3.12,0,0,1,44,305.46Z"/><path class="cls-10" d="M52.15,305.31v-2.8c0-.68-.27-.92-.76-.92a1.47,1.47,0,0,0-1,.41v3.31H49.25v-2.8c0-.68-.26-.92-.75-.92a1.36,1.36,0,0,0-1,.38v3.34H46.36v-4.59l1.18-.16v.65a2,2,0,0,1,1.47-.66,1.31,1.31,0,0,1,1.26.79,2.2,2.2,0,0,1,1.64-.79,1.4,1.4,0,0,1,1.42,1.6v3.16Z"/><path class="cls-10" d="M55.84,303.26a1.29,1.29,0,0,0,1.38,1.26,2.84,2.84,0,0,0,1.44-.42l.15,1a3.61,3.61,0,0,1-1.67.38,2.29,2.29,0,0,1-2.46-2.41,2.33,2.33,0,0,1,2.38-2.5,1.74,1.74,0,0,1,1.9,1.87,3.06,3.06,0,0,1-.1.77l-3,0Zm2-.73v-.08c0-.62-.27-1-.88-1a1.14,1.14,0,0,0-1.1,1.1Z"/><path class="cls-10" d="M63.34,305.31V302.5c0-.68-.27-.91-.8-.91a1.55,1.55,0,0,0-1,.43v3.29H60.34v-4.59l1.18-.16v.73a2.11,2.11,0,0,1,1.52-.74,1.41,1.41,0,0,1,1.48,1.59v3.17Z"/><path class="cls-10" d="M67.78,305.46c-1,0-1.57-.45-1.53-1.56l.07-2.17-.72-.08,0-.75.72-.23,0-1h1.14l0,1.08h1.3l0,1H67.42l-.06,2.13a.54.54,0,0,0,.61.63,2.3,2.3,0,0,0,.72-.14l.16,1A3.12,3.12,0,0,1,67.78,305.46Z"/><path class="cls-10" d="M37.64,314.31v-.46c1.32-1,2.15-1.57,2.15-2.21a.75.75,0,0,0-.83-.75,1.87,1.87,0,0,0-1.14.47l-.18-.43a2.22,2.22,0,0,1,1.36-.5,1.18,1.18,0,0,1,1.31,1.15c0,.87-.89,1.44-2,2.26H40.5v.47Z"/><path class="cls-10" d="M48.39,314.31V312c0-.64-.24-.94-.77-.94a1.57,1.57,0,0,0-1,.47s0,.24,0,.33v2.5h-.49V312c0-.64-.25-.94-.78-.94a1.54,1.54,0,0,0-1,.43v2.87h-.5v-3.66l.5-.11v.5a1.73,1.73,0,0,1,1.16-.5,1,1,0,0,1,1,.61,1.85,1.85,0,0,1,1.29-.61c.7,0,1.13.46,1.13,1.26v2.51Z"/><path class="cls-10" d="M51.87,314.41a1.76,1.76,0,0,1-1.77-1.93,1.81,1.81,0,0,1,1.81-1.94,1.76,1.76,0,0,1,1.76,1.93A1.81,1.81,0,0,1,51.87,314.41Zm0-3.42a1.5,1.5,0,1,0,1.3,1.49A1.32,1.32,0,0,0,51.88,311Z"/><path class="cls-10" d="M57.32,314.31v-2.37c0-.64-.25-.93-.81-.93a1.69,1.69,0,0,0-1.11.52v2.78h-.49v-3.66l.49-.11v.6a1.94,1.94,0,0,1,1.25-.6,1.11,1.11,0,0,1,1.17,1.26v2.51Z"/><path class="cls-10" d="M60.28,314.43c-.7,0-1-.39-1-1.15l.06-2.17-.56,0,0-.31.55-.13,0-.83h.47l0,.85h1.22l0,.44H59.82l-.06,2.19c0,.47.16.69.54.69a1.73,1.73,0,0,0,.7-.18l.09.44A2.13,2.13,0,0,1,60.28,314.43Z"/><path class="cls-10" d="M64.63,314.31v-2.37c0-.64-.25-.93-.78-.93a1.66,1.66,0,0,0-1.13.52v2.78h-.5v-5.39l.5-.11v2.31a1.87,1.87,0,0,1,1.27-.58,1.1,1.1,0,0,1,1.14,1.26v2.51Z"/><path class="cls-10" d="M67.47,314.41a2.34,2.34,0,0,1-1.2-.33l.13-.45a2,2,0,0,0,1.08.33c.44,0,.83-.21.83-.61s-.47-.57-.92-.71-1.07-.4-1.07-1a1.11,1.11,0,0,1,1.24-1.06,2.49,2.49,0,0,1,1.11.27l-.14.45a2.14,2.14,0,0,0-1-.27c-.45,0-.73.21-.73.56s.43.54.9.69,1.08.39,1.08,1.07A1.17,1.17,0,0,1,67.47,314.41Z"/><path class="cls-10" d="M144.17,301.13v5.18H143v-5.18h-2.09v-1.07h5.39v1.07Z"/><path class="cls-10" d="M147.8,306.31h-1.18v-4.58l1.18-.17v.75a1.33,1.33,0,0,1,1.2-.76,1.59,1.59,0,0,1,.82.21l-.26,1.06a1.37,1.37,0,0,0-.66-.18,1.31,1.31,0,0,0-1.1.82Z"/><path class="cls-10" d="M153.29,305.78a1.63,1.63,0,0,1-1.3.68,1.34,1.34,0,0,1-1.43-1.3c0-.85.62-1.57,2.73-1.64v-.11c0-.62-.26-.88-.92-.88a3.34,3.34,0,0,0-1.53.49l-.24-.93a3.83,3.83,0,0,1,1.93-.54c1.42,0,2,.63,1.94,1.9v1.65c0,.35.06.4.41.42l-.09.89c-.88.1-1.29-.17-1.46-.63Zm0-1.64c-1.15.14-1.57.37-1.57.86a.62.62,0,0,0,.69.6,1.18,1.18,0,0,0,.88-.4Z"/><path class="cls-10" d="M156.67,300.86a.71.71,0,1,1,0-1.42.71.71,0,1,1,0,1.42Zm-.59,5.45v-4.58l1.18-.17v4.75Z"/><path class="cls-10" d="M161.92,306.31V303.5c0-.68-.27-.91-.8-.91a1.55,1.55,0,0,0-1,.43v3.29h-1.18v-4.59l1.18-.16v.73a2.11,2.11,0,0,1,1.52-.74,1.41,1.41,0,0,1,1.48,1.59v3.17Z"/><path class="cls-10" d="M165.32,300.86a.71.71,0,1,1,0-1.42.71.71,0,1,1,0,1.42Zm-.59,5.45v-4.58l1.18-.17v4.75Z"/><path class="cls-10" d="M170.57,306.31V303.5c0-.68-.27-.91-.8-.91a1.55,1.55,0,0,0-1,.43v3.29h-1.18v-4.59l1.18-.16v.73a2.11,2.11,0,0,1,1.52-.74,1.41,1.41,0,0,1,1.48,1.59v3.17Z"/><path class="cls-10" d="M173.12,305.7a1.11,1.11,0,0,1,.85-1,1.55,1.55,0,0,1-.84-1.42,1.83,1.83,0,0,1,2-1.76,3.29,3.29,0,0,1,1.3.29l1.24-.11.05,1-.88-.15a1.31,1.31,0,0,1,.21.72,1.77,1.77,0,0,1-1.93,1.68,2.42,2.42,0,0,1-.63-.08c-.16.06-.36.21-.36.4s.21.36,1,.36h.48c1.32,0,2.07.37,2.07,1.27,0,1.09-1.23,1.84-2.69,1.84-1.22,0-2.19-.45-2.19-1.28a1.08,1.08,0,0,1,1-1A.91.91,0,0,1,173.12,305.7Zm.73,1.58c0,.43.53.73,1.31.73s1.43-.3,1.43-.78-.42-.53-1.28-.53c-.29,0-.69,0-.88,0S173.85,307,173.85,307.28Zm1.32-3c.53,0,.83-.38.83-1a.83.83,0,0,0-.88-.93.86.86,0,0,0-.85,1A.85.85,0,0,0,175.17,304.24Z"/><path class="cls-10" d="M143.78,315.19v1.59h-.48v-1.59h-2.46l-.06-.35,2.57-3.43h.43v3.31h.76l0,.47Zm-.48-3-1.88,2.52h1.88Z"/><path class="cls-10" d="M152.28,315.31V313c0-.64-.25-.94-.77-.94a1.57,1.57,0,0,0-1,.47,2.92,2.92,0,0,1,0,.33v2.5H150V313c0-.64-.25-.94-.78-.94a1.57,1.57,0,0,0-1,.43v2.87h-.49v-3.66l.49-.11v.5a1.77,1.77,0,0,1,1.16-.5,1,1,0,0,1,1,.61,1.85,1.85,0,0,1,1.29-.61c.7,0,1.13.46,1.13,1.26v2.51Z"/><path class="cls-10" d="M155.76,315.41a1.76,1.76,0,0,1-1.77-1.93,1.81,1.81,0,0,1,1.81-1.94,1.75,1.75,0,0,1,1.75,1.93A1.8,1.8,0,0,1,155.76,315.41Zm0-3.42a1.5,1.5,0,1,0,1.3,1.49A1.33,1.33,0,0,0,155.77,312Z"/><path class="cls-10" d="M161.21,315.31v-2.37c0-.64-.25-.93-.81-.93a1.67,1.67,0,0,0-1.11.52v2.78h-.49v-3.66l.49-.11v.6a1.94,1.94,0,0,1,1.25-.6,1.11,1.11,0,0,1,1.17,1.26v2.51Z"/><path class="cls-10" d="M164.16,315.43c-.69,0-1-.39-1-1.15l.06-2.17-.56,0,0-.31.55-.13,0-.83h.47l0,.85H165l0,.44h-1.21l-.06,2.19c0,.47.15.69.54.69a1.73,1.73,0,0,0,.7-.18l.09.44A2.18,2.18,0,0,1,164.16,315.43Z"/><path class="cls-10" d="M168.52,315.31v-2.37c0-.64-.25-.93-.78-.93a1.7,1.7,0,0,0-1.14.52v2.78h-.49v-5.39l.49-.11v2.31a1.91,1.91,0,0,1,1.28-.58A1.1,1.1,0,0,1,169,312.8v2.51Z"/><path class="cls-10" d="M171.36,315.41a2.31,2.31,0,0,1-1.2-.33l.13-.45a2,2,0,0,0,1.08.33c.44,0,.83-.21.83-.61s-.47-.57-.92-.71-1.07-.4-1.07-1a1.1,1.1,0,0,1,1.24-1.06,2.49,2.49,0,0,1,1.11.27l-.14.45a2.14,2.14,0,0,0-1-.27c-.45,0-.73.21-.73.56s.43.54.9.69,1.08.39,1.08,1.07A1.17,1.17,0,0,1,171.36,315.41Z"/><path class="cls-10" d="M35.5,362.61v5.18H34.29v-5.18H32.2v-1.07h5.39v1.07Z"/><path class="cls-10" d="M39.13,367.79H38v-4.58l1.18-.17v.75a1.33,1.33,0,0,1,1.2-.76,1.59,1.59,0,0,1,.82.21l-.26,1.06a1.37,1.37,0,0,0-.66-.18,1.31,1.31,0,0,0-1.1.82Z"/><path class="cls-10" d="M44.62,367.26a1.63,1.63,0,0,1-1.3.68,1.34,1.34,0,0,1-1.43-1.3c0-.85.62-1.57,2.73-1.64v-.11c0-.62-.26-.88-.92-.88a3.34,3.34,0,0,0-1.53.49l-.24-.93a3.83,3.83,0,0,1,1.93-.54c1.42,0,2,.63,1.94,1.9v1.65c0,.35.06.4.41.42l-.09.89c-.88.1-1.29-.17-1.46-.63Zm0-1.64c-1.15.14-1.57.37-1.57.86a.62.62,0,0,0,.69.6,1.18,1.18,0,0,0,.88-.4Z"/><path class="cls-10" d="M48,362.34a.71.71,0,1,1,0-1.42.71.71,0,1,1,0,1.42Zm-.59,5.45v-4.58l1.18-.17v4.75Z"/><path class="cls-10" d="M53.25,367.79V365c0-.68-.27-.91-.8-.91a1.55,1.55,0,0,0-1,.43v3.29H50.25V363.2l1.18-.16v.73A2.11,2.11,0,0,1,53,363a1.41,1.41,0,0,1,1.48,1.59v3.17Z"/><path class="cls-10" d="M56.65,362.34a.71.71,0,1,1,0-1.42.71.71,0,1,1,0,1.42Zm-.59,5.45v-4.58l1.18-.17v4.75Z"/><path class="cls-10" d="M61.9,367.79V365c0-.68-.27-.91-.8-.91a1.55,1.55,0,0,0-1,.43v3.29H58.9V363.2l1.18-.16v.73A2.11,2.11,0,0,1,61.6,363a1.41,1.41,0,0,1,1.48,1.59v3.17Z"/><path class="cls-10" d="M64.45,367.18a1.11,1.11,0,0,1,.85-1,1.55,1.55,0,0,1-.84-1.42,1.83,1.83,0,0,1,2-1.76,3.29,3.29,0,0,1,1.3.29l1.24-.11,0,1-.88-.15a1.31,1.31,0,0,1,.21.72,1.77,1.77,0,0,1-1.93,1.68,2.42,2.42,0,0,1-.63-.08c-.16.06-.36.21-.36.4s.21.36,1,.36h.48c1.32,0,2.07.37,2.07,1.27,0,1.09-1.23,1.84-2.69,1.84-1.22,0-2.19-.45-2.19-1.28a1.08,1.08,0,0,1,1-1A.91.91,0,0,1,64.45,367.18Zm.73,1.58c0,.43.53.73,1.31.73s1.43-.3,1.43-.78-.42-.53-1.28-.53c-.29,0-.69,0-.88,0S65.18,368.48,65.18,368.76Zm1.32-3c.53,0,.83-.38.83-1a.83.83,0,0,0-.88-.93.86.86,0,0,0-.85,1A.85.85,0,0,0,66.5,365.72Z"/><path class="cls-10" d="M39.89,376.67v1.59h-.48v-1.59H37l-.07-.34,2.57-3.44h.43v3.31h.76l0,.47Zm-.48-3-1.88,2.52h1.88Z"/><path class="cls-10" d="M48.39,376.79v-2.36c0-.64-.24-.93-.77-.93a1.52,1.52,0,0,0-1,.47s0,.24,0,.33v2.49h-.49v-2.36c0-.64-.25-.93-.78-.93a1.53,1.53,0,0,0-1,.42v2.87h-.5v-3.66l.5-.11v.51a1.7,1.7,0,0,1,1.15-.51,1,1,0,0,1,1,.61,1.85,1.85,0,0,1,1.29-.61c.7,0,1.13.46,1.13,1.27v2.5Z"/><path class="cls-10" d="M51.87,376.89A1.76,1.76,0,0,1,50.1,375a1.81,1.81,0,0,1,1.81-2A1.76,1.76,0,0,1,53.67,375,1.81,1.81,0,0,1,51.87,376.89Zm0-3.42a1.5,1.5,0,1,0,1.3,1.5A1.33,1.33,0,0,0,51.88,373.47Z"/><path class="cls-10" d="M57.32,376.79v-2.37c0-.64-.25-.92-.81-.92a1.65,1.65,0,0,0-1.11.52v2.77h-.49v-3.66l.49-.11v.6a1.94,1.94,0,0,1,1.25-.6,1.11,1.11,0,0,1,1.17,1.26v2.51Z"/><path class="cls-10" d="M60.28,376.91c-.7,0-1-.38-1-1.15l.06-2.17-.56,0,0-.31.55-.13,0-.83h.47l0,.85h1.22l0,.44H59.82l-.06,2.19c0,.47.16.69.54.69a1.89,1.89,0,0,0,.7-.17l.09.43A2,2,0,0,1,60.28,376.91Z"/><path class="cls-10" d="M64.63,376.79v-2.37c0-.64-.25-.92-.78-.92a1.66,1.66,0,0,0-1.14.52v2.77h-.49V371.4l.49-.1v2.31A1.88,1.88,0,0,1,64,373a1.1,1.1,0,0,1,1.14,1.26v2.51Z"/><path class="cls-10" d="M67.47,376.89a2.33,2.33,0,0,1-1.2-.32l.13-.46a2,2,0,0,0,1.08.34c.44,0,.83-.22.83-.62s-.47-.57-.92-.71-1.07-.4-1.07-1A1.12,1.12,0,0,1,67.56,373a2.5,2.5,0,0,1,1.11.28l-.14.44a2.27,2.27,0,0,0-1-.27c-.45,0-.73.21-.73.56s.43.55.9.69,1.08.39,1.08,1.07A1.17,1.17,0,0,1,67.47,376.89Z"/><path class="cls-10" d="M143.42,422h-2V415.8h2.12c2.13,0,3.37,1.21,3.37,3.07S145.64,422,143.42,422Zm0-5.22h-.83V421h.89a2.1,2.1,0,1,0-.06-4.19Z"/><path class="cls-10" d="M148.4,422V415.8h4.26v1H149.6v1.57h2.51v1H149.6V421h3.06v1Z"/><path class="cls-10" d="M156.17,420.09h-.71V422h-1.22V415.8h2c1.73,0,2.58.87,2.58,2.08C158.84,419.32,157.85,420.08,156.17,420.09Zm0-3.28h-.74v2.28l.78,0c.93,0,1.4-.42,1.4-1.15S157.14,416.81,156.18,416.81Z"/><path class="cls-10" d="M160.3,422V415.8h1.22V421h2.82V422Z"/><path class="cls-10" d="M168.3,422.19a3,3,0,0,1-3.21-3.26,3.14,3.14,0,0,1,3.22-3.28,3,3,0,0,1,3.2,3.24A3.14,3.14,0,0,1,168.3,422.19Zm0-5.52a2,2,0,0,0-2,2.22,2,2,0,1,0,2-2.22Z"/><path class="cls-10" d="M175.58,419.62V422h-1.21v-2.43l-2.18-3.81h1.32l1.48,2.69,1.45-2.69h1.31Z"/><path class="cls-10" d="M34.47,484.29h-2V478h2.12c2.13,0,3.37,1.22,3.37,3.08S36.69,484.29,34.47,484.29Zm0-5.22h-.83v4.19h.89a2.1,2.1,0,1,0-.06-4.19Z"/><path class="cls-10" d="M39.45,484.29V478h4.26v1H40.65v1.57h2.51v1H40.65v1.59h3.06v1Z"/><path class="cls-10" d="M47.22,482.34h-.71v1.94H45.29V478h2c1.73,0,2.58.87,2.58,2.09C49.89,481.57,48.9,482.33,47.22,482.34Zm0-3.28h-.74v2.28l.78,0c.93,0,1.4-.42,1.4-1.15S48.19,479.06,47.23,479.06Z"/><path class="cls-10" d="M51.35,484.29V478h1.22v5.18h2.82v1.07Z"/><path class="cls-10" d="M59.35,484.44a3,3,0,0,1-3.21-3.26,3.14,3.14,0,0,1,3.22-3.28,3,3,0,0,1,3.2,3.24A3.14,3.14,0,0,1,59.35,484.44Zm0-5.53a2,2,0,0,0-2,2.23,2,2,0,1,0,2-2.23Z"/><path class="cls-10" d="M66.63,481.87v2.42H65.42v-2.43L63.24,478h1.32l1.48,2.7,1.45-2.7H68.8Z"/><circle class="cls-4" cx="79.35" cy="304.33" r="5"/><circle class="cls-5" cx="79.35" cy="481.29" r="5"/></svg>